:FULLY-SPECIFIED
:FORCE-ALL-JOINTS-BE-3DOF
:DEGREES
2956
root -6.02541 13.1201 -28.7236 1243.34 -66.8724 -160.259
lfemur -68.249 39.7011 -6.94598
ltibia 77.1242 -0 0
lfoot -6.49056 -2.90272 0.0530149
ltoes -35.0804 0 0
rfemur -34.5481 -18.034 22.6006
rtibia 91.0511 -0 0
rfoot -40.3464 -31.7168 -0.00195603
rtoes -12.8638 0 0
lowerback 16.4481 5.27999 1.30711
upperback -4.44151 7.58817 1.47335
thorax -14.2848 3.4576 -1.23407
lowerneck -3.0137 9.63806 1.53342
upperneck 8.09324 12.6596 1.43597
head 3.11967 6.35756 0.663408
lclavicle -3.90129e-14 -2.51529e-14 -1.37957e-31
lhumerus 5.87357 15.3998 81.2043
lradius 89.9116 -0 0
lwrist -14.9589 0 0
lhand -39.2125 31.5082 0.00138956
lfingers 7.12502 -0 0
lthumb -11.8891 58.4265 0.0063966
rclavicle -2.2897e-14 -1.05483e-14 -1.93595e-30
rhumerus -55.8727 50.6021 -108.276
rradius 111.136 -0 0
rwrist -78.9523 0 0
rhand 6.62345 -25.5844 0.0261808
rfingers 7.12502 -0 0
rthumb 27.7765 -51.4572 -0.00500594
2957
root -6.01125 13.1197 -28.7231 1243.44 -67.0645 -160.25
lfemur -68.2869 39.2644 -6.982
ltibia 77.0425 -0 0
lfoot -5.85441 -2.68467 0.0692994
ltoes -34.7667 0 0
rfemur -34.5625 -18.0012 22.6422
rtibia 91.1083 -0 0
rfoot -40.3128 -31.8332 -0.00149669
rtoes -12.8607 0 0
lowerback 16.4794 5.21258 1.27436
upperback -4.41958 7.49056 1.47694
thorax -14.2838 3.4156 -1.18666
lowerneck -3.03087 9.65324 1.52379
upperneck 7.92965 12.6929 1.31392
head 3.07488 6.37059 0.623052
lclavicle -3.93544e-14 -2.57937e-14 -1.16457e-31
lhumerus 5.88448 15.4891 81.0973
lradius 89.7981 -0 0
lwrist -14.3222 0 0
lhand -39.1372 31.5317 0.00115254
lfingers 7.12502 -0 0
lthumb -11.7666 58.5323 0.0108124
rclavicle -2.51941e-14 -1.16337e-14 -1.14859e-30
rhumerus -55.8414 50.5939 -108.242
rradius 110.588 -0 0
rwrist -78.8902 0 0
rhand 5.99297 -25.6707 0.0383522
rfingers 7.12502 -0 0
rthumb 27.538 -51.4133 -0.00304607
2958
root -5.99713 13.1227 -28.7251 1243.62 -67.1371 -160.424
lfemur -68.3228 38.8453 -7.016
ltibia 76.9715 -0 0
lfoot -5.14815 -2.44241 0.08454
ltoes -34.4574 0 0
rfemur -34.6042 -17.9063 22.7626
rtibia 91.1626 -0 0
rfoot -40.2835 -31.9342 -0.00104271
rtoes -12.8186 0 0
lowerback 16.578 5.1983 1.15298
upperback -4.36371 7.44897 1.50703
thorax -14.299 3.40775 -1.08187
lowerneck -3.06552 9.69301 1.54132
upperneck 7.81088 12.7632 1.10719
head 3.05721 6.39959 0.556967
lclavicle -3.96673e-14 -2.63807e-14 -9.34078e-32
lhumerus 5.89327 15.5621 81.0097
lradius 89.6933 -0 0
lwrist -13.6749 0 0
lhand -39.0688 31.553 0.000910355
lfingers 7.12502 -0 0
lthumb -11.6154 58.6629 0.0159472
rclavicle -2.69041e-14 -1.24417e-14 -5.34218e-31
rhumerus -55.8306 50.5911 -108.231
rradius 109.995 -0 0
rwrist -78.8687 0 0
rhand 5.25828 -25.7716 0.0513346
rfingers 7.12502 -0 0
rthumb 27.3579 -51.3802 -0.00144565
2959
root -5.9724 13.12 -28.7311 1243.77 -67.3915 -160.476
lfemur -68.3562 38.4489 -7.04767
ltibia 76.9132 -0 0
lfoot -4.38569 -2.18071 0.0976388
ltoes -34.1568 0 0
rfemur -34.6704 -17.7542 22.955
rtibia 91.2133 -0 0
rfoot -40.2595 -32.0173 -0.000630963
rtoes -12.6974 0 0
lowerback 16.6856 5.14626 1.02155
upperback -4.32295 7.3504 1.50064
thorax -14.3333 3.37199 -0.997305
lowerneck -3.0728 9.69113 1.47583
upperneck 7.55018 12.7739 1.03225
head 2.96999 6.40224 0.534409
lclavicle -3.99463e-14 -2.69043e-14 -7.01476e-32
lhumerus 5.89978 15.6168 80.9442
lradius 89.5993 -0 0
lwrist -13.024 0 0
lhand -39.0082 31.5719 0.000674651
lfingers 7.12502 -0 0
lthumb -11.4385 58.8157 0.0215193
rclavicle -2.79711e-14 -1.29459e-14 -1.38643e-31
rhumerus -55.4716 50.517 -107.929
rradius 109.365 -0 0
rwrist -78.825 0 0
rhand 4.43216 -25.8851 0.0643868
rfingers 7.12502 -0 0
rthumb 27.2442 -51.3593 -0.000380904
2960
root -5.94928 13.1271 -28.7362 1244.06 -67.5794 -160.708
lfemur -68.3869 38.0803 -7.0767
ltibia 76.8694 -0 0
lfoot -3.58102 -1.90438 0.107684
ltoes -33.8693 0 0
rfemur -34.7582 -17.55 23.2124
rtibia 91.2595 -0 0
rfoot -40.2415 -32.0797 -0.000298143
rtoes -12.5046 0 0
lowerback 16.7665 5.14196 0.909519
upperback -4.26015 7.31648 1.47831
thorax -14.3196 3.36498 -0.955387
lowerneck -3.05061 9.64217 1.42565
upperneck 7.26565 12.7275 0.86386
head 2.87741 6.37404 0.476391
lclavicle -4.01863e-14 -2.73546e-14 -4.81037e-32
lhumerus 5.90383 15.6511 80.9031
lradius 89.518 -0 0
lwrist -12.3767 0 0
lhand -38.9565 31.588 0.000457429
lfingers 7.12502 -0 0
lthumb -11.2386 58.9883 0.0272449
rclavicle -2.83392e-14 -1.31198e-14 0
rhumerus -54.4421 50.2965 -107.066
rradius 108.704 -0 0
rwrist -78.6982 0 0
rhand 3.52784 -26.0096 0.0767954
rfingers 7.12502 -0 0
rthumb 27.2045 308.648 0
2961
root -5.9216 13.1378 -28.7479 1244.26 -67.8229 -160.87
lfemur -68.4145 37.7444 -7.10281
ltibia 76.8417 -0 0
lfoot -2.74829 -1.6183 0.113992
ltoes -33.5992 0 0
rfemur -34.8646 -17.2986 23.5278
rtibia 91.3007 -0 0
rfoot -40.2301 -32.1191 -7.83002e-05
rtoes -12.2477 0 0
lowerback 16.8603 5.12607 0.76568
upperback -4.17683 7.25905 1.45496
thorax -14.2935 3.35008 -0.890414
lowerneck -3.04463 9.60668 1.31749
upperneck 6.98882 12.692 0.825483
head 2.77713 6.3542 0.468704
lclavicle -4.0382e-14 -2.77218e-14 -2.87296e-32
lhumerus 5.90523 15.663 80.8888
lradius 89.4514 -0 0
lwrist -11.7401 0 0
lhand -38.9145 31.6011 0.000270619
lfingers 7.12502 -0 0
lthumb -11.0187 59.1781 0.0328481
rclavicle -2.83167e-14 -1.29512e-14 -5.98002e-33
rhumerus -52.8221 49.9247 -105.71
rradius 108.02 -0 0
rwrist -78.4946 0 0
rhand 2.55827 -26.1433 0.0879144
rfingers 7.12502 -0 0
rthumb 27.1566 -51.3796 0.00354706
2962
root -5.89301 13.1475 -28.7611 1244.44 -68.0127 -160.945
lfemur -68.4387 37.4464 -7.12571
ltibia 76.8321 0 0
lfoot -1.90151 -1.32734 0.116142
ltoes -33.3511 0 0
rfemur -34.9866 -17.0048 23.8943
rtibia 91.336 -0 0
rfoot -40.2261 -32.1328 0
rtoes -11.9343 0 0
lowerback 16.8535 5.11722 0.659134
upperback -4.10163 7.21809 1.43621
thorax -14.2116 3.34184 -0.836214
lowerneck -3.02829 9.56378 1.36404
upperneck 6.7351 12.6491 0.614339
head 2.70682 6.32889 0.385329
lclavicle -4.05283e-14 -2.79962e-14 -1.34339e-32
lhumerus 5.9345 15.6472 80.8681
lradius 89.4014 -0 0
lwrist -11.1213 0 0
lhand -38.8833 31.6109 0.000125576
lfingers 7.12502 -0 0
lthumb -10.7816 59.3829 0.0380734
rclavicle -2.82519e-14 -1.24656e-14 -2.28359e-32
rhumerus -50.7007 49.3905 -103.943
rradius 107.318 -0 0
rwrist -78.2207 0 0
rhand 1.5365 -26.2844 0.0971819
rfingers 7.12502 -0 0
rthumb 27.0174 -51.4598 0.0137345
2963
root -5.86017 13.1626 -28.7791 1244.67 -68.1953 -161.067
lfemur -68.4593 37.1912 -7.14511
ltibia 76.6436 -0 0
lfoot -1.05472 -1.03639 0.113992
ltoes -33.1291 0 0
rfemur -35.1212 -16.6736 24.3048
rtibia 91.3647 -0 0
rfoot -40.1885 -32.1259 0.000693999
rtoes -11.5719 0 0
lowerback 16.8677 5.17811 0.550954
upperback -4.03616 7.27021 1.40693
thorax -14.1529 3.37509 -0.822038
lowerneck -3.02593 9.46037 1.24833
upperneck 6.51787 12.5224 0.563636
head 2.62806 6.26295 0.374819
lclavicle -4.06198e-14 -2.8168e-14 -3.50058e-33
lhumerus 6.01828 15.6021 80.8087
lradius 89.3699 -0 0
lwrist -10.5276 0 0
lhand -38.8639 31.6169 3.25326e-05
lfingers 7.12502 -0 0
lthumb -10.5302 59.6001 0.0426883
rclavicle -2.81487e-14 -1.16932e-14 -4.85158e-32
rhumerus -48.1732 48.6809 -101.851
rradius 106.606 -0 0
rwrist -77.8828 0 0
rhand 0.475583 -26.431 0.104141
rfingers 7.12502 -0 0
rthumb 26.7933 -51.5889 0.0297198
2964
root -5.82529 13.1755 -28.7972 1244.72 -68.4055 -160.971
lfemur -68.4758 36.984 -7.16074
ltibia 76.0988 -0 0
lfoot -0.221992 -0.750313 0.107684
ltoes -32.9377 0 0
rfemur -35.2655 -16.3101 24.7525
rtibia 91.3862 -0 0
rfoot -40.0792 -32.1058 0.00268716
rtoes -11.1681 0 0
lowerback 16.8542 5.17723 0.485492
upperback -3.98601 7.25078 1.39404
thorax -14.0922 3.37275 -0.79074
lowerneck -2.98609 9.40626 1.25389
upperneck 6.31725 12.4591 0.443997
head 2.56205 6.22923 0.325873
lclavicle -4.06515e-14 -2.82274e-14 0
lhumerus 6.15057 15.5311 80.7149
lradius 89.359 0 0
lwrist -9.96593 0 0
lhand -38.8572 391.619 0
lfingers 7.12502 -0 0
lthumb -10.2673 59.8271 0.0464944
rclavicle -2.80113e-14 -1.06641e-14 -8.05678e-32
rhumerus -45.3381 47.7845 -99.5235
rradius 105.891 -0 0
rwrist -77.4874 0 0
rhand -0.61144 -26.5813 0.108454
rfingers 7.12502 -0 0
rthumb 26.4908 -51.7632 0.0504902
2965
root -5.78594 13.1934 -28.8186 1244.83 -68.7564 -160.961
lfemur -68.4881 36.8297 -7.1723
ltibia 75.2286 -0 0
lfoot 0.58268 -0.473979 0.0976388
ltoes -32.7812 0 0
rfemur -35.4166 -15.919 25.2307
rtibia 91.3996 -0 0
rfoot -39.9034 -32.0735 0.00581444
rtoes -10.7303 0 0
lowerback 16.8912 5.16265 0.408471
upperback -3.93447 7.20666 1.34594
thorax -14.0566 3.35708 -0.789733
lowerneck -2.95571 9.33867 1.21247
upperneck 6.12591 12.3769 0.371025
head 2.49431 6.18644 0.298652
lclavicle -4.05926e-14 -2.81147e-14 -1.13827e-32
lhumerus 6.3254 15.4377 80.5909
lradius 89.3372 -0 0
lwrist -9.44369 0 0
lhand -38.8163 31.6183 -6.79102e-05
lfingers 7.12502 -0 0
lthumb -9.99579 60.0616 0.0493313
rclavicle -2.78437e-14 -9.40861e-15 -1.1633e-31
rhumerus -42.2928 46.6946 -97.0494
rradius 105.179 -0 0
rwrist -77.0408 0 0
rhand -1.71152 -26.7335 0.109915
rfingers 7.12502 -0 0
rthumb 26.1164 -51.9791 0.0749162
